<svg width="1400" height="1595" viewBox="0 0 1400 1595" fill="none" xmlns="http://www.w3.org/2000/svg">
<path fill-rule="evenodd" clip-rule="evenodd" d="M952.843 1083.01C945.972 1083.89 938.547 1084.11 924.626 1083.84C897.204 1083.3 885.969 1088.32 893.264 1097.85C894.226 1099.11 894.495 1102.8 894.618 1116.46C894.703 1125.83 895.372 1140.42 896.105 1148.9C897.934 1170.05 899.175 1262.48 898.206 1305.46C897.804 1323.31 897.225 1356.53 896.922 1379.29C896.618 1402.04 895.887 1438.74 895.297 1460.83C893.387 1532.43 894.085 1534.4 919.49 1529.31C933.569 1526.49 943.333 1525.51 967.136 1524.53C1005.26 1522.96 1007.29 1520.25 1001.81 1478.17C990.919 1394.55 990.898 1390.91 1001.44 1412.81C1019.6 1450.51 1029.78 1469.52 1047.1 1498.09C1063.06 1524.42 1063.87 1524.89 1084.5 1519.8C1095.24 1517.15 1111.31 1514.6 1126.92 1513.07C1149.78 1510.82 1154.49 1510.22 1169.89 1507.54C1196.27 1502.96 1203.04 1498.59 1200.13 1488.02C1198.6 1482.45 1187.67 1468.84 1147.51 1422.47C1131.74 1404.27 1115.01 1384.65 1110.31 1378.88C1102.92 1369.79 1072.6 1333.34 1048.34 1304.4C1039.21 1293.51 1036.75 1298.08 1069.26 1265.46C1097.9 1236.72 1104.49 1230.61 1140.13 1199.75C1214.21 1135.62 1226.17 1119.65 1206.39 1111.33C1200.08 1108.67 1130.47 1117.63 1103.19 1124.61C1098.07 1125.92 1089.63 1127.92 1084.44 1129.05C1073.54 1131.42 1069.98 1133.41 1066.28 1139.19C1064.91 1141.32 1061.83 1146.17 1059.44 1149.97C1049.51 1165.74 1038.41 1180.23 1013.24 1210.29C1004.79 1220.37 995.731 1231.46 993.102 1234.92C990.473 1238.38 988.224 1241.11 988.105 1241C987.987 1240.88 987.21 1220.72 986.38 1196.21C982.174 1072.05 984.22 1078.96 952.843 1083.01ZM163.713 1146.19C99.8739 1150.23 26.361 1170.34 7.67189 1188.87C-0.514899 1196.99 -0.925593 1199.66 3.31698 1217.19C5.16277 1224.82 7.85538 1237.07 9.30039 1244.43C14.9534 1273.19 30.6077 1348.45 36.9404 1377.31C48.0653 1428.02 55.8489 1466.4 60.2019 1492.02C62.4783 1505.42 66.0383 1525.33 68.1132 1536.26C71.5116 1554.17 71.8431 1556.94 71.4537 1564.19C70.9148 1574.23 71.9148 1578.11 76.2312 1582.74C82.0334 1588.96 82.8913 1589.15 104.989 1589.16C124.084 1589.18 124.659 1589.23 134.587 1591.73C160.336 1598.22 166.965 1591.46 169.395 1556.25C170.704 1537.28 170.289 1464.73 168.776 1448.07C167.413 1433.05 167.308 1433.39 173.369 1433.33C233.049 1432.78 348.183 1353.16 366.551 1299.73C398.243 1207.55 305.336 1137.22 163.713 1146.19ZM1267.54 1202.03C1255.08 1203.08 1243.27 1204.71 1222.13 1208.28C1208.98 1210.51 1194.02 1212.77 1188.89 1213.32C1165.35 1215.83 1160.54 1221.58 1164.67 1242.28C1166.82 1253.05 1168.64 1269.04 1170.28 1291.73C1172.04 1316.07 1173.46 1327.43 1177.43 1349.19C1179.24 1359.05 1181.72 1373.32 1182.95 1380.89C1195.56 1458.5 1198.23 1468.29 1208.09 1473.19C1222.98 1480.59 1285.45 1478.75 1344.93 1469.15C1357.86 1467.06 1372.77 1464.81 1378.06 1464.14C1396.79 1461.78 1400.65 1457.18 1398.77 1439.41C1397.41 1426.59 1396.07 1395.27 1395.92 1373.24C1395.73 1344.4 1392.43 1340.26 1374.66 1346.52C1371.32 1347.7 1358.56 1351.78 1346.31 1355.6C1334.06 1359.41 1313.65 1366.22 1300.96 1370.73C1269.1 1382.04 1272.34 1382.07 1272.97 1370.52C1273.61 1359.03 1272.05 1360.81 1283.57 1358.4C1288.88 1357.3 1299.95 1354.36 1308.18 1351.87C1349.01 1339.54 1350.7 1338.05 1348.2 1316.51C1347.48 1310.35 1346.64 1302.04 1346.32 1298.02C1345.06 1282.24 1340.63 1278.86 1325.56 1282.19C1321.35 1283.12 1311.16 1284.88 1302.91 1286.1C1289.1 1288.15 1265.69 1292.61 1262.8 1293.74C1261.73 1294.16 1261.56 1292.16 1261.48 1278.23C1261.4 1264.82 1261.57 1262.3 1262.53 1262.67C1273.76 1266.9 1333.88 1263.55 1341.88 1258.25C1352.24 1251.38 1348.42 1214.07 1336.71 1207.75C1328.26 1203.19 1290.61 1200.08 1267.54 1202.03ZM669.197 1213.91C619.873 1217.39 614.089 1218.5 606.769 1225.92C599.515 1233.27 599.223 1238.12 604.988 1255.5C613.705 1281.77 614.33 1288.77 614.934 1367.11C615.481 1437.9 616.417 1480.67 617.719 1494.3C618.405 1501.48 618.337 1503.8 617.343 1507.22C611.639 1526.84 623.789 1535.31 656.02 1534.17C709.522 1532.28 710.316 1531.83 713.378 1501.62C714.259 1492.91 715.204 1484.33 715.475 1482.54C715.748 1480.76 716.125 1467.32 716.316 1452.69C716.661 1426.09 716.661 1426.09 724.972 1439.66C737.839 1460.67 743.729 1473.22 747.798 1488.3C752.605 1506.1 760.008 1510.66 780.015 1508.15C795.843 1506.15 811.991 1505.05 833.14 1504.5C865.641 1503.67 867.788 1501.82 869.077 1473.55C870.682 1438.34 869.077 1364.45 865.79 1322.27C863.648 1294.78 862.231 1267.38 862.122 1251.31C861.942 1224.8 857.759 1222.39 812.052 1222.47C767 1222.55 764.619 1225.43 773.658 1268.86C778.144 1290.42 785.323 1336.72 784.547 1339.1C784.4 1339.55 780.249 1333.43 775.325 1325.5C770.401 1317.57 761.316 1303.2 755.136 1293.56C748.958 1283.93 740.228 1269.74 735.738 1262.04C704.891 1209.09 707.789 1211.18 669.197 1213.91ZM488.556 1223.71C486.676 1224.68 483.009 1225.41 478.325 1225.74C397.802 1231.42 323.518 1393.29 362.622 1477.87C419.484 1600.86 602.613 1513.55 595.549 1366.81C591.838 1289.76 527.43 1203.62 488.556 1223.71ZM165.166 1242.8C188.17 1249.03 213.561 1262.06 218.691 1270.25C239.746 1303.88 216.619 1327.68 162.322 1328.27C139.223 1328.52 138.291 1328.21 137.632 1320.09C136.784 1309.67 131.471 1275.06 128.642 1261.53C127.283 1255.04 126.169 1249.45 126.167 1249.12C126.162 1248.16 137.804 1242.97 142.936 1241.64C148.72 1240.15 156.948 1240.58 165.166 1242.8ZM503.679 1349.69C518.172 1366.71 512.425 1401.86 492.096 1420.53C465.12 1445.3 454.019 1432.12 464.223 1387.44C466.723 1376.5 493.419 1347.13 500.913 1347.08C501.209 1347.07 502.453 1348.25 503.679 1349.69Z" fill="black"/>
<path d="M252.02 415.304C211.55 444.747 120.705 474.267 86.3036 538.424C51.8893 602.572 128.92 668.116 128.92 668.116C128.92 668.116 103.776 727.092 112.511 813.57C122.555 913.098 179.902 1033.34 253.862 1058.31C320.712 1080.87 490.145 1090.39 490.145 1090.39C490.145 1090.39 638.976 1100.66 774.858 1068.22C874.518 1044.42 1039 964.743 1082.69 927.996C1126.38 891.249 1196.72 827.211 1218.64 760.872C1232.99 717.467 1221.87 654.353 1200.06 619.409C1186.97 598.418 1162.13 567.883 1141.89 555.841C1160.99 544.097 1189.31 516.947 1203.08 496.466C1210.2 485.886 1237.56 432.884 1231.05 395.138C1220.82 335.709 1153.94 269.538 1095.77 236.868C1070.33 222.578 1026.85 211.358 1026.85 211.358C1026.85 211.358 988.41 141.937 924.744 106.904C875.923 80.0328 774.156 57.8356 667.685 176.591C667.685 176.591 572.751 90.0026 459.524 132.8C413.828 150.072 370.251 188.419 319.986 258.362C269.71 328.309 262.837 381.903 251.168 415.356" fill="#FFB000"/>
<path d="M209.059 938.724C252.538 996.165 243.471 1031.91 430.215 1034.93C616.961 1037.95 696.967 1039.52 743.097 1023.81C833.082 993.176 1033.95 925.842 1056.6 893.584C1079.26 861.326 1131.07 830.895 1168.66 758.254C1197.11 703.284 1169.09 652.382 1141.07 624.685C1113.07 596.986 1081.38 561.265 1073.1 549.247C1073.1 549.247 1101.69 543.377 1118.09 516.801C1134.5 490.224 1115.12 492.855 1142.42 481.105C1188 461.467 1176.09 443.793 1177.43 420.603C1178.77 397.402 1171.35 344.725 1147.4 331.876C1123.44 319.028 1141.35 317.674 1103.77 296.728C1066.19 275.786 1079.37 261.996 1033.63 261.305C987.873 260.616 1010.18 258.12 1010.18 258.12C1010.18 258.12 1011.98 270.483 981.912 230.343C951.839 190.205 913.818 146.961 865.413 140.872C817.019 134.78 800.646 128.379 753.289 158.582C705.932 188.784 669.158 236.739 669.158 236.739C669.158 236.739 616.969 183.982 543.59 174.019C470.21 164.057 416.611 225.994 385.061 262.767C353.501 299.541 318.221 353.032 305.933 403.475C293.634 453.918 295.016 464.857 295.016 464.857L284.848 455.457L245.515 474.682C245.515 474.682 147.727 518.736 141.219 561.041C134.71 603.347 156.784 634.933 173.751 653.326C173.751 653.326 182.73 642.661 175.825 678.974C168.929 715.274 139.386 846.673 209.059 938.724Z" fill="#A76100"/>
<path d="M403.642 407.937L447.72 655.173C447.72 655.173 395.951 736.813 425.75 834.955C455.55 933.106 500.009 952.916 545.884 955.8C591.756 958.673 1011.44 931.41 1052.87 895.24C1094.31 859.058 1078.51 862.085 1078.51 862.085C1078.51 862.085 1204.27 731.587 1137.28 629.766L1045.61 574.635L1045.49 558.192C1045.49 558.192 1109.61 555.086 1126.37 490.211C1126.37 490.211 1181.21 494.134 1170.66 427.874C1160.09 361.616 1177.36 356.538 1135.33 332.064C1135.33 332.064 1113.52 299.963 1087.93 293.14C1062.33 286.317 1067.53 258.221 988.281 262.491C909.017 266.762 808.949 271.105 738.474 313.9C738.474 313.9 519.516 236.706 403.642 407.937Z" fill="#F5C785"/>
<path d="M841.758 452.962C841.758 452.962 903.229 375.594 999.592 363.387C1095.96 351.189 1175.9 376.014 1184.87 391.451C1193.84 406.888 1179.21 417.61 1162.68 433.027C1146.15 448.443 1014.36 522.501 850.108 511.168L841.237 505.237C841.237 505.237 804.19 551.487 685.604 556.435C567.026 561.371 519.089 535.511 519.089 535.511C519.089 535.511 537.893 442.387 658.517 428.43C779.142 414.483 796.396 415.518 812.635 420.841C828.861 426.155 841.758 452.962 841.758 452.962Z" fill="white"/>
<path d="M1081.16 721.597C1081.16 721.597 1015.81 759.376 896.338 766.268C776.874 773.148 763.024 805.271 688.27 755.956C613.517 706.64 573.698 681.061 540.717 721.362C507.746 761.66 529.241 809.565 581.665 846.004C634.09 882.444 773.441 929.559 957.015 892.182C1140.6 854.803 1128.77 822.626 1153.6 786.758C1179.61 749.214 1188.24 712.812 1175.73 688.718C1163.21 664.636 1162.15 624.998 1146.88 626.898C1131.62 628.797 1090.02 664.368 1081.16 721.597Z" fill="#DB291E"/>
<path d="M607.591 773.69C641.204 809.274 710.472 823.509 757.25 831.551C865.856 850.238 954.967 844.495 1055.17 797.915C1088.64 782.353 1139.73 738.187 1159.12 695.067C1168.57 674.039 1173.07 656.913 1159.31 636.444C1149.24 621.444 1130.93 633.512 1119.73 646.091C1084.09 686.124 1088.87 719.015 1076.48 724.193C990.622 760.039 935.766 762.815 881.367 769.826C825.208 777.066 760.181 788.01 706.489 768.403C666.488 753.786 643.937 712.387 599.886 704.811C571.222 699.876 511.445 718.971 521.173 762.489C530.9 805.997 590.646 862.435 629.746 876.722C720.641 909.919 830.556 898.097 924.878 891.374C967.758 888.317 1016.37 887.398 1056.37 870.102C1107.51 847.984 1131.73 817.789 1160.98 770.945C1190.23 724.1 1174.77 674.808 1170.82 675.995" stroke="black" stroke-width="16.8114" stroke-miterlimit="10" stroke-linecap="round" stroke-linejoin="round"/>
<path d="M1088.57 853.285C1079.48 865.695 1051.45 893.739 1037.46 901.501C1004.3 919.889 984.842 917.793 947.009 923.215C877.286 933.209 835.319 938.505 765.239 946.522C706.832 953.196 556.641 973.823 505.949 947.414C446.007 916.185 425.067 869.835 417.268 794.034C413.486 757.178 431.613 666.589 458.298 651.792" stroke="black" stroke-width="16.8114" stroke-miterlimit="10" stroke-linecap="round" stroke-linejoin="round"/>
<path d="M447.444 658.407C436.531 639.596 413.779 469.302 401.798 411.473" stroke="black" stroke-width="16.8114" stroke-miterlimit="10" stroke-linecap="round" stroke-linejoin="round"/>
<path d="M401.805 413.438C403.678 397.602 447.469 354.641 459.327 343.713C532.923 275.873 723.855 268.61 773.558 359.581" stroke="black" stroke-width="16.8114" stroke-miterlimit="10" stroke-linecap="round" stroke-linejoin="round"/>
<path d="M735.858 317.49C740.715 310.096 789.419 291.712 789.419 291.712C789.419 291.712 913.868 243.839 977.217 269.023" stroke="black" stroke-width="16.8114" stroke-miterlimit="10" stroke-linecap="round" stroke-linejoin="round"/>
<path d="M979.577 268.266C979.577 268.266 1002.79 260.863 1009.56 260.655C1042.98 259.626 1089.73 286.601 1112.91 308.389" stroke="black" stroke-width="16.8114" stroke-miterlimit="10" stroke-linecap="round" stroke-linejoin="round"/>
<path d="M827.888 399.705C838.582 390.07 867.123 354.529 925.815 329.186C984.497 303.845 1036.24 304.098 1068.23 306.774C1082.95 308.007 1126.44 311.42 1143.93 329.67C1164.42 351.033 1170.75 376.541 1170.75 376.541" stroke="black" stroke-width="16.8114" stroke-miterlimit="10" stroke-linecap="round" stroke-linejoin="round"/>
<path d="M845.909 454.863C845.909 454.863 866.341 425.869 899.487 404.279C932.642 382.676 941.838 379.242 978.509 368.467C1033.02 352.439 1092.49 346.939 1146.62 368.188C1153.59 370.924 1187.85 388.4 1187.37 397.549C1186.43 415.625 1146.82 440.937 1121.05 455.619C1041.03 501.187 937.614 518.209 847.77 508.187" stroke="black" stroke-width="16.8114" stroke-miterlimit="10" stroke-linecap="round" stroke-linejoin="round"/>
<path d="M1172.43 423.478C1172.08 422.559 1185.41 451.011 1166.2 473.594C1152.1 490.16 1134.01 496.476 1111.17 495.994" stroke="black" stroke-width="16.8114" stroke-miterlimit="10" stroke-linecap="round" stroke-linejoin="round"/>
<path d="M1129.07 496.086C1130.91 492.109 1128.7 523.824 1066.44 551.536C1004.17 579.237 918.533 590.765 880.706 599.546" stroke="black" stroke-width="16.8114" stroke-miterlimit="10" stroke-linecap="round" stroke-linejoin="round"/>
<path d="M1041.45 564.46C1045.97 570.227 1048.24 580.268 1048.4 580.349C1076.65 593.394 1108.81 603.955 1132.24 625.975" stroke="black" stroke-width="16.8114" stroke-miterlimit="10" stroke-linecap="round" stroke-linejoin="round"/>
<path d="M1074.18 549.852C1094.74 580.871 1121.02 610.458 1137.78 626.216" stroke="black" stroke-width="16.8114" stroke-miterlimit="10" stroke-linecap="round" stroke-linejoin="round"/>
<path d="M513.408 536.567C509.914 535.128 530.473 482.994 591.646 451.562C645.297 424.004 674.381 423.236 735.216 419.513C760.857 417.938 804.632 413.809 820.755 423.916C842.87 437.781 846.37 472.226 846.869 490.951C847.727 523.312 773.817 542.228 741.326 549.342C722.394 553.482 663.654 562.583 606.752 559.584C549.85 556.586 549.084 546.286 513.728 537.336C512.173 536.94 500.157 542.556 490.137 542.629C471.755 542.777 451.157 537.723 451.157 537.723" stroke="black" stroke-width="16.8114" stroke-miterlimit="10" stroke-linecap="round" stroke-linejoin="round"/>
<path d="M844.766 508.823C856.988 538.12 819.551 571.989 774.023 581.428C664.763 604.079 560.167 596.558 540.448 588.445" stroke="black" stroke-width="16.8114" stroke-miterlimit="10" stroke-linecap="round" stroke-linejoin="round"/>
<path d="M779.079 581.296C779.079 581.296 708.45 648.753 668.685 665.352" stroke="black" stroke-width="16.8114" stroke-miterlimit="10" stroke-linecap="round" stroke-linejoin="round"/>
<path d="M827.124 423.527C831.307 401.335 822.78 381.748 784.2 364.255C745.62 346.763 671.967 359.279 671.967 359.279C671.967 359.279 607.438 365.061 551.361 399.056C495.272 433.053 447.625 495.264 447.625 495.264" stroke="black" stroke-width="16.8114" stroke-miterlimit="10" stroke-linecap="round" stroke-linejoin="round"/>
<path d="M952.828 608.763C976.514 615.508 994.181 626.311 999.259 635.135" stroke="black" stroke-width="16.8114" stroke-miterlimit="10" stroke-linecap="round" stroke-linejoin="round"/>
<path d="M920.551 660.978C926.987 666.709 938.6 681.324 939.114 690.267" stroke="black" stroke-width="16.8114" stroke-miterlimit="10" stroke-linecap="round" stroke-linejoin="round"/>
<path d="M862.105 708.865C858.456 704.041 856.456 684.434 858.14 678.574" stroke="black" stroke-width="16.8114" stroke-miterlimit="10" stroke-linecap="round" stroke-linejoin="round"/>
<path d="M938.433 385.247C934.748 385.932 933.045 398.581 932.633 401.597C930.335 418.113 931.203 431.4 934.274 447.912C943.042 495.056 974.682 510.885 1017.26 496.503C1029.43 492.394 1045.82 487.467 1054.67 477.225C1081.27 446.41 1078.9 379.898 1039.35 360.314C1030.26 355.817 1015.1 362.481 1006.49 365.088C982.712 372.305 957.416 375.915 937.372 391.069" fill="black"/>
<path d="M938.433 385.247C934.748 385.932 933.045 398.581 932.633 401.597C930.335 418.113 931.203 431.4 934.274 447.912C943.042 495.056 974.682 510.885 1017.26 496.503C1029.43 492.394 1045.82 487.467 1054.67 477.225C1081.27 446.41 1078.9 379.898 1039.35 360.314C1030.26 355.817 1015.1 362.481 1006.49 365.088C982.712 372.305 957.416 375.915 937.372 391.069" stroke="black" stroke-width="12.6086" stroke-miterlimit="10" stroke-linecap="round" stroke-linejoin="round"/>
<path d="M953.728 390.435C947.194 391.65 942.834 395.135 939.939 403.453C936.121 414.417 936.775 431.479 952.792 430.798C965.961 430.25 975.825 409.431 970.496 397.77C965.247 387.712 961.708 389.476 953.728 390.435Z" fill="white"/>
<path d="M598.606 453.627C599.127 454.348 589.967 465.875 589.35 467.371C583.494 481.576 581.331 491.99 585.09 507.269C598.696 562.608 627.122 560.438 675.678 552.071C692.822 549.126 713.402 546.834 723.287 530.056C740.481 500.88 730.718 467.335 711.313 443.562C706.53 437.689 699.026 430.974 690.806 430.801C670.105 430.363 648.96 434.605 628.985 438.607C622.029 440 614.998 449.374 608.213 450.735C605.687 451.238 598.502 453.481 598.606 453.627Z" fill="black" stroke="black" stroke-width="12.6086" stroke-miterlimit="10" stroke-linecap="round" stroke-linejoin="round"/>
<path d="M625.838 449.175C606.626 443.908 588.795 473.96 608.811 483.962C630.716 494.916 652.434 456.473 629.341 450.182" fill="white"/>
<path d="M731.565 312.058C734.065 307.197 705.232 267.547 667.15 235.622C636.518 209.942 611.995 194.779 585.579 186.957C498.305 161.111 457.51 186.256 405.605 239.358C345.076 301.29 296.64 374.709 295.63 462.744" stroke="black" stroke-width="16.8114" stroke-miterlimit="10" stroke-linecap="round" stroke-linejoin="round"/>
<path d="M671.25 233.271C671.25 233.271 693.905 206.007 746.328 165.493C797.428 126.004 875.685 123.99 926.855 172.1C974.184 216.613 1001.21 259.238 1001.21 259.238" stroke="black" stroke-width="16.8114" stroke-miterlimit="10" stroke-linecap="round" stroke-linejoin="round"/>
<path d="M390.783 1033.55C390.783 1033.55 487.111 1038.86 514.31 1039.61C653.585 1043.41 792.134 1024.65 917.692 961.408C917.692 961.408 1007.4 916.197 1018.31 910.954" stroke="black" stroke-width="16.8114" stroke-miterlimit="10" stroke-linecap="round" stroke-linejoin="round"/>
<path d="M312.705 714.515C298.764 725.052 268.093 721.032 237.637 703.734C215.298 691.037 190.992 666.341 183.989 659.466C154.356 630.368 132.136 605.538 138.262 561.359C143.959 520.332 272.037 450.852 286.024 457.378C315.401 471.078 321.858 502.11 327.209 530.884" stroke="black" stroke-width="16.8114" stroke-miterlimit="10" stroke-linecap="round" stroke-linejoin="round"/>
<path d="M223.207 535.761C242.176 532.233 271.904 528.926 288.435 540.272C306.282 552.522 300.847 629.536 295.479 648.203" stroke="black" stroke-width="16.8114" stroke-miterlimit="10" stroke-linecap="round" stroke-linejoin="round"/>
<path d="M180.231 658.122C175.067 665.646 148.443 768.059 172.238 863.747C192.87 946.642 232.367 981.961 266.784 1006.48C286.297 1020.38 365.493 1032.85 391.06 1033.31" stroke="black" stroke-width="16.8114" stroke-miterlimit="10" stroke-linecap="round" stroke-linejoin="round"/>
<path d="M526.508 893.059C484.146 867.654 478.372 857.104 468.468 814.723C458.577 772.351 476.077 732.819 486.903 723.535" stroke="black" stroke-width="16.8114" stroke-miterlimit="10" stroke-linecap="round" stroke-linejoin="round"/>
</svg>
