<svg width="822" height="256" viewBox="0 0 822 256" fill="none" xmlns="http://www.w3.org/2000/svg">
<path fill-rule="evenodd" clip-rule="evenodd" d="M649.412 28.803C646.724 28.9881 643.836 28.9012 638.436 28.4724C627.802 27.6282 623.323 29.317 625.935 33.1861C626.279 33.6964 626.298 35.1349 626.029 40.4406C625.845 44.0805 625.766 49.7643 625.854 53.0713C626.074 61.328 624.414 97.2451 623.041 113.908C622.471 120.829 621.477 133.716 620.831 142.545C620.186 151.374 619.052 165.604 618.311 174.168C615.909 201.924 616.134 202.708 626.116 201.321C631.648 200.551 635.462 200.397 644.727 200.568C659.568 200.843 660.418 199.837 659.265 183.371C656.974 150.649 657.051 149.236 660.638 157.983C666.814 173.043 670.324 180.66 676.387 192.153C681.975 202.748 682.279 202.95 690.405 201.452C694.639 200.672 700.937 200.054 707.032 199.82C715.963 199.479 717.804 199.353 723.845 198.671C734.196 197.504 736.926 195.963 736.041 191.792C735.574 189.596 731.648 184.058 717.128 165.121C711.428 157.688 705.384 149.683 703.696 147.332C701.038 143.631 690.106 128.777 681.358 116.979C678.066 112.538 677.005 114.258 690.383 102.346C702.17 91.85 704.872 89.6296 719.426 78.4743C749.675 55.2903 754.69 49.3679 747.202 45.6756C744.815 44.4983 717.577 46.3647 706.824 48.4424C704.804 48.8327 701.481 49.4122 699.44 49.7302C695.154 50.3983 693.726 51.0873 692.153 53.2451C691.572 54.0429 690.265 55.8558 689.25 57.2739C685.029 63.1655 680.383 68.535 669.913 79.6227C666.399 83.3437 662.623 87.4373 661.522 88.7199C660.421 90.0023 659.485 91.0122 659.441 90.9638C659.398 90.9156 659.564 83.0722 659.81 73.534C661.054 25.2277 661.689 27.9574 649.412 28.803ZM341.546 35.0421C316.665 35.1317 287.656 41.2353 279.969 47.9977C276.603 50.9599 276.381 51.9873 277.622 58.8932C278.162 61.8978 278.923 66.7194 279.314 69.6082C280.842 80.9063 285.176 110.492 286.966 121.846C290.11 141.789 292.243 156.873 293.339 166.923C293.912 172.178 294.833 179.991 295.385 184.285C296.289 191.317 296.354 192.401 296.035 195.203C295.593 199.089 295.891 200.62 297.46 202.517C299.568 205.068 299.897 205.162 308.477 205.68C315.891 206.127 316.113 206.16 319.91 207.361C329.757 210.477 332.488 208.006 334.247 194.391C335.195 187.057 336.716 158.877 336.514 152.373C336.333 146.512 336.285 146.64 338.639 146.759C361.825 147.928 408.374 119.68 416.745 99.3609C431.187 64.304 396.743 34.8431 341.546 35.0421ZM768.841 82.3103C763.982 82.4306 759.356 82.7886 751.067 83.6863C745.909 84.2448 740.049 84.778 738.045 84.8718C728.846 85.3014 726.844 87.4237 727.969 95.5532C728.554 99.7864 728.887 106.038 729 114.885C729.121 124.375 729.407 128.821 730.446 137.362C730.917 141.232 731.55 146.828 731.852 149.799C734.95 180.225 735.759 184.089 739.475 186.22C745.085 189.438 769.383 190.169 792.7 187.82C797.769 187.31 803.61 186.781 805.68 186.644C813.008 186.163 814.61 184.466 814.293 177.524C814.065 172.512 814.268 160.322 814.722 151.763C815.317 140.562 814.132 138.877 807.084 140.897C805.76 141.277 800.712 142.567 795.867 143.764C791.022 144.96 782.94 147.131 777.908 148.587C765.276 152.242 766.531 152.326 767.047 147.86C767.56 143.411 766.913 144.067 771.444 143.4C773.529 143.092 777.896 142.208 781.148 141.434C797.288 137.593 797.977 137.054 797.507 128.63C797.373 126.224 797.237 122.975 797.205 121.409C797.082 115.252 795.441 113.838 789.515 114.779C787.857 115.043 783.857 115.491 780.626 115.775C775.219 116.251 766.026 117.439 764.875 117.811C764.451 117.948 764.432 117.169 764.724 111.756C765.005 106.549 765.129 105.576 765.493 105.739C769.755 107.643 793.174 107.737 796.405 105.863C800.585 103.437 799.968 88.86 795.569 86.136C792.392 84.1694 777.846 82.0871 768.841 82.3103ZM536.244 73.0537C517.012 73.2627 514.741 73.5608 511.727 76.2712C508.74 78.957 508.514 80.8319 510.349 87.713C513.125 98.1174 513.205 100.851 511.624 131.281C510.196 158.779 509.568 175.407 509.757 180.73C509.857 183.536 509.777 184.435 509.312 185.74C506.642 193.225 511.163 196.793 523.704 197.099C544.522 197.606 544.84 197.449 546.73 185.79C547.274 182.43 547.84 179.119 547.986 178.431C548.133 177.744 548.591 172.538 549.004 166.861C549.755 156.541 549.755 156.541 552.668 162.003C557.177 170.459 559.172 175.468 560.403 181.415C561.857 188.44 564.625 190.382 572.452 189.868C578.644 189.462 584.94 189.407 593.164 189.686C605.803 190.116 606.679 189.448 607.835 178.5C609.274 164.865 610.364 136.138 610.065 119.686C609.871 108.961 609.956 98.2906 610.286 92.0477C610.83 81.7517 609.262 80.7194 591.513 79.6913C574.019 78.6778 573.028 79.7396 575.53 96.813C576.773 105.287 578.487 123.432 578.13 124.335C578.063 124.507 576.593 122.035 574.865 118.841C573.137 115.648 569.942 109.858 567.766 105.974C565.59 102.091 562.53 96.3798 560.965 93.2833C550.215 72.0089 551.292 72.8901 536.244 73.0537ZM465.878 72.6735C465.126 73.0073 463.685 73.2045 461.859 73.2245C430.462 73.563 397.867 134.692 411.09 168.438C430.317 217.51 503.446 187.854 504.104 130.717C504.449 100.713 481.438 65.7715 465.878 72.6735ZM339.871 72.5902C348.658 75.543 358.215 81.1871 360.017 84.488C367.413 98.0337 357.881 106.74 336.785 105.708C327.811 105.269 327.456 105.128 327.388 101.963C327.301 97.8935 326.04 84.3324 325.255 79.0163C324.878 76.4631 324.575 74.2689 324.582 74.1404C324.602 73.767 329.243 72.0199 331.266 71.6238C333.546 71.1777 336.731 71.5354 339.871 72.5902ZM468.83 121.938C474.063 128.884 471.017 142.399 462.691 149.176C451.642 158.167 447.638 152.793 452.635 135.682C453.86 131.491 464.906 120.706 467.817 120.86C467.932 120.865 468.387 121.351 468.83 121.938Z" fill="black" style="fill:black;fill-opacity:1;"/>
<path d="M47.9745 201.561C57.1911 213.609 55.3207 221.144 94.6441 221.579C133.968 222.015 150.815 222.259 160.512 218.902C179.426 212.354 221.647 197.961 226.382 191.144C231.117 184.327 241.994 177.864 249.832 162.529C255.761 150.924 249.807 140.236 243.878 134.434C237.952 128.632 231.241 121.145 229.484 118.624C229.484 118.624 235.498 117.357 238.924 111.743C242.349 106.13 238.272 106.705 244.007 104.201C253.584 100.017 251.056 96.3087 251.314 91.4244C251.572 86.5379 249.953 75.4544 244.894 72.7748C239.836 70.0952 243.606 69.7909 235.672 65.421C227.735 61.0521 230.496 58.1343 220.864 58.0381C211.229 57.9422 215.924 57.3927 215.924 57.3927C215.924 57.3927 216.317 59.9937 209.941 51.5746C203.566 43.1556 195.514 34.0911 185.315 32.8611C175.119 31.6307 171.665 30.3004 161.726 36.7108C151.787 43.1211 144.096 53.258 144.096 53.258C144.096 53.258 133.05 42.2058 117.589 40.187C102.128 38.1684 90.9086 51.2675 84.3053 59.0441C77.6997 66.8211 70.3288 78.1221 67.7957 88.7564C65.2604 99.3908 65.5632 101.693 65.5632 101.693L63.4121 99.7243L55.1511 103.814C55.1511 103.814 34.6086 113.196 33.2837 122.11C31.9588 131.025 36.6405 137.652 40.233 141.506C40.233 141.506 42.112 139.251 40.6973 146.905C39.2843 154.555 33.2053 182.254 47.9745 201.561Z" fill="#9C641A" style="fill:#9C641A;fill:color(display-p3 0.6118 0.3922 0.1020);fill-opacity:1;"/>
<path d="M88.3752 89.5912L97.9223 141.601C97.9223 141.601 87.1098 158.847 93.4898 179.479C99.8702 200.113 109.253 204.237 118.915 204.794C128.577 205.35 216.915 199.158 225.599 191.497C234.285 183.834 230.961 184.489 230.961 184.489C230.961 184.489 257.302 156.876 243.087 135.509L223.726 123.999L223.683 120.538C223.683 120.538 237.181 119.814 240.639 106.137C240.639 106.137 252.19 106.904 249.896 92.9634C247.601 79.0236 251.231 77.9357 242.356 72.8279C242.356 72.8279 237.728 66.0923 232.333 64.6831C226.935 63.2741 228.001 57.3527 211.318 58.3371C194.633 59.3219 173.568 60.3441 158.775 69.4306C158.775 69.4306 112.589 53.4126 88.3752 89.5912Z" fill="#ECC88D" style="fill:#ECC88D;fill:color(display-p3 0.9255 0.7843 0.5529);fill-opacity:1;"/>
<path d="M180.67 98.599C180.67 98.599 193.529 82.2426 213.806 79.5684C234.083 76.8965 250.943 82.0374 252.848 85.2781C254.754 88.5189 251.683 90.7923 248.22 94.056C244.757 97.3198 217.088 113.055 182.49 110.846L180.616 109.607C180.616 109.607 172.865 119.385 147.902 120.554C122.94 121.721 112.818 116.328 112.818 116.328C112.818 116.328 116.677 96.6996 142.06 93.6309C167.444 90.5645 171.078 90.7638 174.503 91.8671C177.925 92.9685 180.67 98.599 180.67 98.599Z" fill="white" style="fill:white;fill-opacity:1;"/>
<path d="M231.371 154.904C231.371 154.904 217.652 162.929 192.503 164.509C167.357 166.086 164.475 172.865 148.682 162.562C132.889 152.258 124.477 146.915 117.576 155.436C110.677 163.957 115.255 174.02 126.332 181.637C137.41 189.253 166.802 199.023 205.415 190.955C244.029 182.887 241.504 176.125 246.694 168.546C252.129 160.613 253.908 152.939 251.247 147.879C248.586 142.822 248.32 134.477 245.107 134.894C241.895 135.31 233.175 142.845 231.371 154.904Z" fill="#DA4030" style="fill:#DA4030;fill:color(display-p3 0.8549 0.2510 0.1882);fill-opacity:1;"/>
<path d="M131.711 166.383C138.826 173.839 153.427 176.762 163.285 178.405C186.173 182.223 204.929 180.918 225.978 171.002C233.008 167.689 243.719 158.335 247.754 149.235C249.721 144.797 250.651 141.186 247.731 136.891C245.595 133.743 241.752 136.304 239.408 138.965C231.947 147.432 232.989 154.353 230.385 155.456C212.346 163.096 200.798 163.74 189.352 165.275C177.535 166.86 163.855 169.234 152.529 165.163C144.09 162.129 139.298 153.436 130.014 151.888C123.973 150.88 111.408 154.965 113.503 164.118C115.598 173.268 128.238 185.087 136.487 188.053C155.661 194.945 178.791 192.338 198.644 190.821C207.67 190.131 217.905 189.885 226.309 186.2C237.052 181.488 242.119 175.104 248.227 165.209C254.336 155.314 251.027 144.952 250.197 145.206" stroke="black" style="stroke:black;stroke-opacity:1;" stroke-width="4.45597" stroke-miterlimit="10" stroke-linecap="round" stroke-linejoin="round"/>
<path d="M233.073 182.624C231.171 185.247 229.077 190.056 226.139 191.706C219.177 195.613 211.301 196.319 203.341 197.501C188.671 199.68 179.84 200.841 165.093 202.604C152.802 204.072 121.2 208.577 110.499 203.071C97.8438 196.56 93.3847 186.823 91.6611 170.871C90.8251 163.115 94.5442 144.022 100.147 140.877" stroke="black" style="stroke:black;stroke-opacity:1;" stroke-width="4.45597" stroke-miterlimit="10" stroke-linecap="round" stroke-linejoin="round"/>
<path d="M97.8668 142.282C95.5488 138.333 90.5748 102.501 87.9899 90.3373" stroke="black" style="stroke:black;stroke-opacity:1;" stroke-width="4.45597" stroke-miterlimit="10" stroke-linecap="round" stroke-linejoin="round"/>
<path d="M87.993 90.7508C88.3702 87.4144 97.5445 78.3217 100.029 76.0079C115.453 61.6445 155.647 59.9095 166.21 79.0108" stroke="black" style="stroke:black;stroke-opacity:1;" stroke-width="4.45597" stroke-miterlimit="10" stroke-linecap="round" stroke-linejoin="round"/>
<path d="M158.227 70.189C159.242 68.6269 169.477 64.7036 169.477 64.7036C169.477 64.7036 195.629 54.4894 208.995 59.724" stroke="black" style="stroke:black;stroke-opacity:1;" stroke-width="4.45597" stroke-miterlimit="10" stroke-linecap="round" stroke-linejoin="round"/>
<path d="M209.49 59.5622C209.49 59.5622 214.369 57.9786 215.794 57.9275C222.83 57.6747 232.703 63.3041 237.607 67.8668" stroke="black" style="stroke:black;stroke-opacity:1;" stroke-width="4.45597" stroke-miterlimit="10" stroke-linecap="round" stroke-linejoin="round"/>
<path d="M177.694 87.4004C179.936 85.36 185.907 77.8459 198.238 72.4466C210.566 67.0477 221.46 67.0453 228.199 67.5742C231.301 67.8181 240.461 68.4898 244.164 72.3136C248.5 76.7897 249.861 82.1538 249.861 82.1538" stroke="black" style="stroke:black;stroke-opacity:1;" stroke-width="4.45597" stroke-miterlimit="10" stroke-linecap="round" stroke-linejoin="round"/>
<path d="M181.549 98.9955C181.549 98.9955 185.82 92.8686 192.776 88.287C199.734 83.7027 201.666 82.9697 209.376 80.6613C220.837 77.2279 233.352 76.0057 244.772 80.4216C246.243 80.9903 253.475 84.633 253.385 86.56C253.207 90.3669 244.893 95.7392 239.483 98.8583C222.682 108.539 200.927 112.235 181.998 110.221" stroke="black" style="stroke:black;stroke-opacity:1;" stroke-width="4.45597" stroke-miterlimit="10" stroke-linecap="round" stroke-linejoin="round"/>
<path d="M250.262 92.0357C250.188 91.8426 251.656 99.033 247.951 101.589C245.848 103.039 242.463 105.468 237.653 105.391" stroke="black" style="stroke:black;stroke-opacity:1;" stroke-width="4.45597" stroke-miterlimit="10" stroke-linecap="round" stroke-linejoin="round"/>
<path d="M241.347 105.821C241.729 104.981 241.16 113.211 228.08 119.113C215 125.013 196.981 127.532 189.025 129.422" stroke="black" style="stroke:black;stroke-opacity:1;" stroke-width="4.45597" stroke-miterlimit="10" stroke-linecap="round" stroke-linejoin="round"/>
<path d="M222.836 121.861C223.794 123.07 224.284 125.182 224.317 125.199C230.28 127.915 237.063 130.104 242.019 134.716" stroke="black" style="stroke:black;stroke-opacity:1;" stroke-width="4.45597" stroke-miterlimit="10" stroke-linecap="round" stroke-linejoin="round"/>
<path d="M229.715 118.75C234.076 125.259 239.643 131.461 243.187 134.76" stroke="black" style="stroke:black;stroke-opacity:1;" stroke-width="4.45597" stroke-miterlimit="10" stroke-linecap="round" stroke-linejoin="round"/>
<path d="M111.623 116.557C110.886 116.257 115.158 105.258 128.005 98.574C139.272 92.7137 145.395 92.5207 158.2 91.6715C163.597 91.3122 172.81 90.3956 176.216 92.5063C180.887 95.402 181.661 102.651 181.786 106.593C182.002 113.406 166.46 117.468 159.626 119.001C155.645 119.893 143.286 121.873 131.302 121.303C119.318 120.733 119.145 118.565 111.691 116.718C111.363 116.637 108.839 117.832 106.73 117.858C102.859 117.909 98.5168 116.867 98.5168 116.867" stroke="black" style="stroke:black;stroke-opacity:1;" stroke-width="4.45597" stroke-miterlimit="10" stroke-linecap="round" stroke-linejoin="round"/>
<path d="M181.367 110.358C183.972 116.514 176.125 123.685 166.549 125.722C143.568 130.609 121.537 129.138 117.376 127.451" stroke="black" style="stroke:black;stroke-opacity:1;" stroke-width="4.45597" stroke-miterlimit="10" stroke-linecap="round" stroke-linejoin="round"/>
<path d="M167.612 125.688C167.612 125.688 152.814 139.968 144.459 143.506" stroke="black" style="stroke:black;stroke-opacity:1;" stroke-width="4.45597" stroke-miterlimit="10" stroke-linecap="round" stroke-linejoin="round"/>
<path d="M177.559 92.4176C178.416 87.7402 176.599 83.6254 168.457 79.9836C160.315 76.342 144.82 79.0567 144.82 79.0567C144.82 79.0567 131.24 80.3437 119.469 87.5618C107.695 94.7805 97.7298 107.931 97.7298 107.931" stroke="black" style="stroke:black;stroke-opacity:1;" stroke-width="4.45597" stroke-miterlimit="10" stroke-linecap="round" stroke-linejoin="round"/>
<path d="M204.227 131.285C209.221 132.679 212.953 134.935 214.031 136.787" stroke="black" style="stroke:black;stroke-opacity:1;" stroke-width="4.45597" stroke-miterlimit="10" stroke-linecap="round" stroke-linejoin="round"/>
<path d="M197.488 142.314C198.85 143.514 201.311 146.578 201.428 148.461" stroke="black" style="stroke:black;stroke-opacity:1;" stroke-width="4.45597" stroke-miterlimit="10" stroke-linecap="round" stroke-linejoin="round"/>
<path d="M185.233 152.459C184.459 151.447 184.017 147.321 184.365 146.085" stroke="black" style="stroke:black;stroke-opacity:1;" stroke-width="4.45597" stroke-miterlimit="10" stroke-linecap="round" stroke-linejoin="round"/>
<path d="M200.952 84.2374C200.177 84.3856 199.832 87.0507 199.748 87.6861C199.282 91.1662 199.479 93.9629 200.144 97.4363C202.041 107.353 208.72 110.652 217.669 107.578C220.228 106.7 223.673 105.645 225.525 103.479C231.093 96.9618 230.523 82.9599 222.173 78.8789C220.254 77.9417 217.07 79.3613 215.26 79.9194C210.261 81.4646 204.939 82.2521 200.735 85.4643" fill="black" style="fill:black;fill-opacity:1;"/>
<path d="M200.952 84.2374C200.177 84.3856 199.832 87.0507 199.748 87.6861C199.282 91.1662 199.479 93.9629 200.144 97.4363C202.041 107.353 208.72 110.652 217.669 107.578C220.228 106.7 223.673 105.645 225.525 103.479C231.093 96.9618 230.523 82.9599 222.173 78.8789C220.254 77.9417 217.07 79.3613 215.26 79.9194C210.261 81.4646 204.939 82.2521 200.735 85.4643" stroke="black" style="stroke:black;stroke-opacity:1;" stroke-width="3.34198" stroke-miterlimit="10" stroke-linecap="round" stroke-linejoin="round"/>
<path d="M204.181 85.3133C202.807 85.5761 201.892 86.3146 201.291 88.0691C200.5 90.3818 200.655 93.9735 204.027 93.813C206.8 93.6833 208.854 89.2893 207.719 86.8396C206.603 84.7276 205.86 85.1027 204.181 85.3133Z" fill="white" style="fill:white;fill-opacity:1;"/>
<path d="M129.477 99.0006C129.588 99.1518 127.671 101.589 127.543 101.904C126.325 104.902 125.881 107.097 126.689 110.31C129.613 121.947 135.596 121.46 145.811 119.646C149.418 119.007 153.748 118.502 155.812 114.959C159.401 108.797 157.309 101.745 153.197 96.7601C152.184 95.5286 150.597 94.1227 148.866 94.0951C144.507 94.0253 140.059 94.9412 135.857 95.8053C134.394 96.1062 132.924 98.0875 131.497 98.3814C130.965 98.49 129.455 98.9699 129.477 99.0006Z" fill="black" stroke="black" style="fill:black;fill-opacity:1;stroke:black;stroke-opacity:1;" stroke-width="3.34198" stroke-miterlimit="10" stroke-linecap="round" stroke-linejoin="round"/>
<path d="M135.206 98.0344C131.155 96.946 127.433 103.293 131.658 105.377C136.282 107.66 140.813 99.5423 135.944 98.2425" fill="white" style="fill:white;fill-opacity:1;"/>
<path d="M157.318 69.0496C157.839 68.0234 151.726 59.7058 143.673 53.0249C137.195 47.6508 132.016 44.4846 126.445 42.866C108.041 37.5178 99.4788 42.8563 88.6069 54.0931C75.9289 67.1985 65.8093 82.7094 65.6914 101.247" stroke="black" style="stroke:black;stroke-opacity:1;" stroke-width="4.45597" stroke-miterlimit="10" stroke-linecap="round" stroke-linejoin="round"/>
<path d="M144.533 52.5252C144.533 52.5252 149.274 46.7603 160.268 38.1732C170.985 29.8036 187.461 29.2953 198.287 39.3701C208.3 48.6916 214.036 57.6374 214.036 57.6374" stroke="black" style="stroke:black;stroke-opacity:1;" stroke-width="4.45597" stroke-miterlimit="10" stroke-linecap="round" stroke-linejoin="round"/>
<path d="M86.3435 221.332C86.3435 221.332 106.632 222.347 112.36 222.474C141.689 223.124 170.841 219.025 197.21 205.574C197.21 205.574 216.56 196.046 218.85 194.93" stroke="black" style="stroke:black;stroke-opacity:1;" stroke-width="4.45597" stroke-miterlimit="10" stroke-linecap="round" stroke-linejoin="round"/>
<path d="M69.5555 154.241C66.6315 156.475 60.1691 155.661 53.7379 152.052C49.0204 149.402 43.876 144.229 42.3942 142.789C36.1235 136.694 31.418 131.49 32.6605 122.181C33.8158 113.536 60.7086 98.7688 63.6608 100.128C69.8611 102.981 71.254 109.508 72.4116 115.561" stroke="black" style="stroke:black;stroke-opacity:1;" stroke-width="4.45597" stroke-miterlimit="10" stroke-linecap="round" stroke-linejoin="round"/>
<path d="M50.5156 116.699C54.5059 115.936 60.7618 115.208 64.2546 117.579C68.0258 120.139 66.9642 136.36 65.854 140.297" stroke="black" style="stroke:black;stroke-opacity:1;" stroke-width="4.45597" stroke-miterlimit="10" stroke-linecap="round" stroke-linejoin="round"/>
<path d="M41.6043 142.509C40.525 144.099 35.0294 165.692 40.1427 185.814C44.5761 203.246 52.9305 210.64 60.2036 215.765C64.3272 218.67 81.0158 221.212 86.3997 221.281" stroke="black" style="stroke:black;stroke-opacity:1;" stroke-width="4.45597" stroke-miterlimit="10" stroke-linecap="round" stroke-linejoin="round"/>
<path d="M114.765 191.605C105.818 186.301 104.591 184.086 102.46 175.173C100.331 166.262 103.974 157.919 106.243 155.953" stroke="black" style="stroke:black;stroke-opacity:1;" stroke-width="4.45597" stroke-miterlimit="10" stroke-linecap="round" stroke-linejoin="round"/>
</svg>
